# xmcd
#
# Track frame offsets:
# 150
# 32165
# 42276
# 54544
# 66395
# 81502
# 107012
# 117568
# 137302
# 154523
#
# Disc length: 2209 seconds
#
# Revision: 0
# Processed by: cddbd v1.4PL0 Copyright (c) Steve Scherf et al.
# Submitted via: Axialis_AX_CDPlayer 2.6
#
DISCID=86089f0a
DTITLE=Shuggie Otis - Here Comes Shuggie Otis
DYEAR=1900
DGENRE=
TTITLE0=Oxford Gray
TTITLE1=Jennie Lee
TTITLE2=Bootie Cooler
TTITLE3=Knowing{that you want him}
TTITLE4=Funky Thithee
TTITLE5=Shuggie's Boogie
TTITLE6=Hurricaine
TTITLE7=Gospel Groove
TTITLE8=Baby, I Need You
TTITLE9=Hawkin"
EXTD=
EXTT0=
EXTT1=
EXTT2=
EXTT3=
EXTT4=
EXTT5=
EXTT6=
EXTT7=
EXTT8=
EXTT9=
PLAYORDER=
